<svg width="32" height="32" viewBox="0 0 32 32" fill="none" xmlns="http://www.w3.org/2000/svg">
<g clip-path="url(#clip0_195_147)">
<path d="M26.6666 23.3333C27.1802 23.3336 27.674 23.5314 28.0458 23.8859C28.4175 24.2403 28.6386 24.7242 28.6633 25.2372C28.688 25.7502 28.5143 26.2531 28.1784 26.6416C27.8424 27.0301 27.3698 27.2744 26.8586 27.324L26.6666 27.3333H5.33325C4.81963 27.3331 4.32579 27.1352 3.95407 26.7808C3.58235 26.4263 3.36124 25.9425 3.33655 25.4294C3.31187 24.9164 3.48551 24.4136 3.82149 24.0251C4.15746 23.6366 4.63003 23.3922 5.14125 23.3427L5.33325 23.3333H26.6666ZM26.6666 14C27.197 14 27.7057 14.2107 28.0808 14.5858C28.4559 14.9609 28.6666 15.4696 28.6666 16C28.6666 16.5304 28.4559 17.0391 28.0808 17.4142C27.7057 17.7893 27.197 18 26.6666 18H5.33325C4.80282 18 4.29411 17.7893 3.91904 17.4142C3.54397 17.0391 3.33325 16.5304 3.33325 16C3.33325 15.4696 3.54397 14.9609 3.91904 14.5858C4.29411 14.2107 4.80282 14 5.33325 14H26.6666ZM26.6666 4.66667C27.197 4.66667 27.7057 4.87738 28.0808 5.25245C28.4559 5.62753 28.6666 6.13623 28.6666 6.66667C28.6666 7.1971 28.4559 7.70581 28.0808 8.08088C27.7057 8.45595 27.197 8.66667 26.6666 8.66667H5.33325C4.80282 8.66667 4.29411 8.45595 3.91904 8.08088C3.54397 7.70581 3.33325 7.1971 3.33325 6.66667C3.33325 6.13623 3.54397 5.62753 3.91904 5.25245C4.29411 4.87738 4.80282 4.66667 5.33325 4.66667H26.6666Z" fill="#F8F8F8"/>
</g>
<defs>
<clipPath id="clip0_195_147">
<rect width="32" height="32" fill="white"/>
</clipPath>
</defs>
</svg>
