<svg width="20" height="20" viewBox="0 0 20 20" fill="none" xmlns="http://www.w3.org/2000/svg">
<path d="M10.0001 12.5C11.3808 12.5 12.5001 11.3807 12.5001 10C12.5001 8.61929 11.3808 7.5 10.0001 7.5C8.61937 7.5 7.50008 8.61929 7.50008 10C7.50008 11.3807 8.61937 12.5 10.0001 12.5Z" stroke="white" stroke-linecap="round" stroke-linejoin="round"/>
<path d="M15.6061 12.2727C15.5053 12.5012 15.4752 12.7547 15.5198 13.0004C15.5643 13.2462 15.6815 13.473 15.8561 13.6515L15.9016 13.697C16.0425 13.8377 16.1542 14.0048 16.2305 14.1887C16.3067 14.3727 16.346 14.5698 16.346 14.7689C16.346 14.9681 16.3067 15.1652 16.2305 15.3492C16.1542 15.5331 16.0425 15.7002 15.9016 15.8409C15.7609 15.9818 15.5938 16.0935 15.4098 16.1698C15.2259 16.246 15.0287 16.2853 14.8296 16.2853C14.6305 16.2853 14.4334 16.246 14.2494 16.1698C14.0655 16.0935 13.8984 15.9818 13.7577 15.8409L13.7122 15.7955C13.5337 15.6208 13.3069 15.5036 13.0611 15.4591C12.8154 15.4145 12.5619 15.4446 12.3334 15.5455C12.1093 15.6415 11.9183 15.8009 11.7836 16.0042C11.649 16.2074 11.5768 16.4456 11.5758 16.6894V16.8182C11.5758 17.22 11.4162 17.6054 11.1321 17.8896C10.8479 18.1737 10.4625 18.3333 10.0607 18.3333C9.65884 18.3333 9.27346 18.1737 8.98931 17.8896C8.70517 17.6054 8.54554 17.22 8.54554 16.8182V16.75C8.53967 16.4992 8.45851 16.2561 8.31259 16.052C8.16667 15.848 7.96276 15.6926 7.72735 15.6061C7.49886 15.5052 7.24539 15.4751 6.99964 15.5197C6.75388 15.5643 6.52711 15.6814 6.34857 15.8561L6.30311 15.9015C6.1624 16.0424 5.99529 16.1541 5.81135 16.2304C5.62742 16.3066 5.43026 16.3459 5.23114 16.3459C5.03203 16.3459 4.83487 16.3066 4.65093 16.2304C4.46699 16.1541 4.29989 16.0424 4.15917 15.9015C4.0183 15.7608 3.90654 15.5937 3.83029 15.4098C3.75405 15.2258 3.7148 15.0287 3.7148 14.8295C3.7148 14.6304 3.75405 14.4333 3.83029 14.2493C3.90654 14.0654 4.0183 13.8983 4.15917 13.7576L4.20463 13.7121C4.37928 13.5336 4.49643 13.3068 4.54099 13.0611C4.58555 12.8153 4.55547 12.5618 4.45463 12.3333C4.35859 12.1093 4.19914 11.9182 3.99589 11.7836C3.79264 11.649 3.55447 11.5767 3.31069 11.5758H3.1819C2.78006 11.5758 2.39467 11.4161 2.11053 11.132C1.82638 10.8478 1.66675 10.4624 1.66675 10.0606C1.66675 9.65876 1.82638 9.27338 2.11053 8.98923C2.39467 8.70509 2.78006 8.54545 3.1819 8.54545H3.25008C3.50083 8.53959 3.74402 8.45842 3.94804 8.31251C4.15205 8.16659 4.30744 7.96268 4.39402 7.72727C4.49487 7.49878 4.52495 7.24531 4.48039 6.99955C4.43583 6.7538 4.31867 6.52703 4.14402 6.34849L4.09857 6.30303C3.95769 6.16231 3.84594 5.99521 3.76969 5.81127C3.69344 5.62734 3.65419 5.43018 3.65419 5.23106C3.65419 5.03195 3.69344 4.83479 3.76969 4.65085C3.84594 4.46691 3.95769 4.29981 4.09857 4.15909C4.23928 4.01822 4.40639 3.90646 4.59032 3.83021C4.77426 3.75396 4.97142 3.71472 5.17054 3.71472C5.36965 3.71472 5.56681 3.75396 5.75075 3.83021C5.93469 3.90646 6.10179 4.01822 6.24251 4.15909L6.28796 4.20455C6.46651 4.37919 6.69328 4.49635 6.93903 4.54091C7.18478 4.58547 7.43825 4.55539 7.66675 4.45455H7.72735C7.95142 4.35851 8.14252 4.19906 8.27712 3.99581C8.41172 3.79256 8.48396 3.55438 8.48493 3.31061V3.18182C8.48493 2.77998 8.64456 2.39459 8.92871 2.11044C9.21285 1.8263 9.59824 1.66667 10.0001 1.66667C10.4019 1.66667 10.7873 1.8263 11.0715 2.11044C11.3556 2.39459 11.5152 2.77998 11.5152 3.18182V3.25C11.5162 3.49378 11.5884 3.73195 11.723 3.9352C11.8576 4.13845 12.0487 4.29791 12.2728 4.39394C12.5013 4.49478 12.7548 4.52487 13.0005 4.48031C13.2463 4.43575 13.4731 4.31859 13.6516 4.14394L13.6971 4.09849C13.8378 3.95761 14.0049 3.84586 14.1888 3.76961C14.3727 3.69336 14.5699 3.65411 14.769 3.65411C14.9681 3.65411 15.1653 3.69336 15.3492 3.76961C15.5332 3.84586 15.7003 3.95761 15.841 4.09849C15.9819 4.2392 16.0936 4.40631 16.1699 4.59024C16.2461 4.77418 16.2854 4.97134 16.2854 5.17046C16.2854 5.36957 16.2461 5.56673 16.1699 5.75067C16.0936 5.9346 15.9819 6.10171 15.841 6.24242L15.7955 6.28788C15.6209 6.46642 15.5037 6.69319 15.4592 6.93895C15.4146 7.1847 15.4447 7.43817 15.5455 7.66667V7.72727C15.6416 7.95134 15.801 8.14244 16.0043 8.27704C16.2075 8.41164 16.4457 8.48388 16.6895 8.48485H16.8183C17.2201 8.48485 17.6055 8.64448 17.8896 8.92863C18.1738 9.21277 18.3334 9.59816 18.3334 10C18.3334 10.4018 18.1738 10.7872 17.8896 11.0714C17.6055 11.3555 17.2201 11.5152 16.8183 11.5152H16.7501C16.5063 11.5161 16.2681 11.5884 16.0649 11.723C15.8616 11.8576 15.7022 12.0487 15.6061 12.2727Z" stroke="white" stroke-linecap="round" stroke-linejoin="round"/>
</svg>
