<svg width="20" height="21" viewBox="0 0 20 21" fill="none" xmlns="http://www.w3.org/2000/svg">
<path fill-rule="evenodd" clip-rule="evenodd" d="M7.70842 13.8333C7.70842 12.5677 8.73443 11.5417 10.0001 11.5417C11.2657 11.5417 12.2917 12.5677 12.2917 13.8333C12.2917 15.099 11.2657 16.125 10.0001 16.125C8.73443 16.125 7.70842 15.099 7.70842 13.8333ZM10.0001 12.7917C9.42479 12.7917 8.95842 13.258 8.95842 13.8333C8.95842 14.4086 9.42479 14.875 10.0001 14.875C10.5754 14.875 11.0417 14.4086 11.0417 13.8333C11.0417 13.258 10.5754 12.7917 10.0001 12.7917Z" fill="white"/>
<path fill-rule="evenodd" clip-rule="evenodd" d="M4.37508 8.2523V7.16666C4.37508 4.06006 6.89348 1.54166 10.0001 1.54166C13.1067 1.54166 15.6251 4.06006 15.6251 7.16666V8.2523C15.8141 8.26559 15.9923 8.2829 16.1599 8.30543C16.91 8.40628 17.5415 8.62203 18.0431 9.12362C18.5447 9.62522 18.7605 10.2568 18.8613 11.0069C18.9584 11.7293 18.9584 12.6479 18.9584 13.7876V13.8791C18.9584 15.0187 18.9584 15.9373 18.8613 16.6598C18.7605 17.4099 18.5447 18.0414 18.0431 18.543C17.5415 19.0446 16.91 19.2604 16.1599 19.3612C15.4374 19.4584 14.5188 19.4583 13.3791 19.4583H6.62102C5.48136 19.4583 4.56276 19.4584 3.84029 19.3612C3.0902 19.2604 2.45864 19.0446 1.95704 18.543C1.45544 18.0414 1.2397 17.4099 1.13885 16.6598C1.04172 15.9373 1.04173 15.0187 1.04175 13.8791V13.7876C1.04173 12.6479 1.04172 11.7293 1.13885 11.0069C1.2397 10.2568 1.45544 9.62522 1.95704 9.12362C2.45864 8.62203 3.0902 8.40628 3.84029 8.30543C4.0079 8.2829 4.18606 8.26559 4.37508 8.2523ZM5.62508 7.16666C5.62508 4.75042 7.58384 2.79166 10.0001 2.79166C12.4163 2.79166 14.3751 4.75042 14.3751 7.16666V8.2112C14.0638 8.20832 13.7321 8.20833 13.3791 8.20833H6.62102C6.26809 8.20833 5.93635 8.20832 5.62508 8.2112V7.16666ZM4.00685 9.54429C3.39537 9.6265 3.07156 9.77687 2.84092 10.0075C2.61029 10.2381 2.45992 10.562 2.37771 11.1734C2.29308 11.8029 2.29175 12.6372 2.29175 13.8333C2.29175 15.0295 2.29308 15.8638 2.37771 16.4932C2.45992 17.1047 2.61029 17.4285 2.84092 17.6592C3.07156 17.8898 3.39537 18.0402 4.00685 18.1224C4.63631 18.207 5.47057 18.2083 6.66675 18.2083H13.3334C14.5296 18.2083 15.3639 18.207 15.9933 18.1224C16.6048 18.0402 16.9286 17.8898 17.1592 17.6592C17.3899 17.4285 17.5402 17.1047 17.6225 16.4932C17.7071 15.8638 17.7084 15.0295 17.7084 13.8333C17.7084 12.6372 17.7071 11.8029 17.6225 11.1734C17.5402 10.562 17.3899 10.2381 17.1592 10.0075C16.9286 9.77687 16.6048 9.6265 15.9933 9.54429C15.3639 9.45966 14.5296 9.45833 13.3334 9.45833H6.66675C5.47057 9.45833 4.63631 9.45966 4.00685 9.54429Z" fill="white"/>
</svg>
