<svg width="21" height="21" viewBox="0 0 21 21" fill="none" xmlns="http://www.w3.org/2000/svg">
<path fill-rule="evenodd" clip-rule="evenodd" d="M11.9584 2.16666C11.9584 4.58291 13.9172 6.54166 16.3334 6.54166C16.6786 6.54166 16.9584 6.82149 16.9584 7.16666C16.9584 7.51184 16.6786 7.79166 16.3334 7.79166C14.5664 7.79166 12.9896 6.97687 11.9584 5.7025V15.5C11.9584 17.6861 10.1862 19.4583 8.00008 19.4583C5.81395 19.4583 4.04175 17.6861 4.04175 15.5C4.04175 13.3139 5.81395 11.5417 8.00008 11.5417C9.04776 11.5417 10.0004 11.9487 10.7084 12.6132V2.16666H11.9584ZM10.7084 15.5C10.7084 14.0042 9.49585 12.7917 8.00008 12.7917C6.50431 12.7917 5.29175 14.0042 5.29175 15.5C5.29175 16.9958 6.50431 18.2083 8.00008 18.2083C9.49585 18.2083 10.7084 16.9958 10.7084 15.5Z" fill="white"/>
</svg>
